<svg xmlns="http://www.w3.org/2000/svg" xmlns:xlink="http://www.w3.org/1999/xlink" version="1.1" x="0px" y="0px" viewBox="0 0 100 125" enable-background="new 0 0 100 100" xml:space="preserve"><path fill-rule="evenodd" clip-rule="evenodd" d="M46.4482422,18.519043l-3.8935547,1.5913086l-0.65625,2.4150391  l-1.7041016,0.3564453l-1.4033203,1.5727539l1.1796875-2.0786133l1.9658203-0.7490234l0.3730469-1.4042969l-2.7138672,1.1049805  l-2.4726563,4.1196289l-0.9541016,13.4443359c-2.7714844,0.5805664-4.3642578,1.3481445-3.8378906,3.2768555l3.8378906-0.8432617  c1.1054688,13.4453125,0.7119141,21.4033203,0.0556641,33.9667969c1.6103516,5.8613281,7.8652344,6.2167969,13.9697266,6.2167969  c6.0839844-0.0185547,11.984375-0.375,13.59375-6.2167969c-0.6748047-12.5634766-1.0664063-20.5214844,0.0556641-33.9667969  l3.8212891,0.8432617c0.5410156-1.9287109-1.0683594-2.6962891-3.8398438-3.2768555l-0.9355469-13.4443359l-2.4902344-4.1196289  l-2.7158203-1.1049805l0.375,1.4042969l1.9853516,0.7490234l1.1796875,2.0786133l-1.4052734-1.5727539l-1.7226563-0.3564453  l-0.6367188-2.4150391l-3.9130859-1.5913086C53.1894531,18.4814453,46.8232422,18.4814453,46.4482422,18.519043  L46.4482422,18.519043z M50.0058594,77.0146484c-5.4658203-0.1494141-7.9003906,0.3564453-8.1259766-9.3251953  c5.4121094,0,10.8417969,0,16.2539063,0C57.9091797,77.3710938,55.4560547,76.8652344,50.0058594,77.0146484L50.0058594,77.0146484z   M50.0058594,57.1855469l-5.5976563-0.6181641l0.2617188-5.972168l5.3359375-0.8056641l5.3183594,0.8056641l0.2617188,5.972168  L50.0058594,57.1855469z M40.2695313,47.168457l-2.0771484-7.434082c3.6503906-1.5732422,5.7851563-1.7792969,9.9042969-1.5732422  c1.2734375,0,2.5458984,0,3.8007813,0c4.1386719-0.2060547,6.2724609,0,9.90625,1.5732422l-2.0595703,7.434082  C55.9609375,45.3696289,44.0517578,45.3696289,40.2695313,47.168457L40.2695313,47.168457z M62.046875,44.4345703  l-1.5546875,4.0444336l-0.4121094,17.1889648l1.2548828-0.375l0.75-2.6582031  C61.2988281,56.9599609,61.5224609,50.7631836,62.046875,44.4345703L62.046875,44.4345703z M37.9472656,44.4345703  l1.5722656,4.0444336l0.4130859,17.1889648l-1.2734375-0.375l-0.75-2.6582031  C38.7148438,56.9599609,38.4716797,50.7631836,37.9472656,44.4345703L37.9472656,44.4345703z"/><text x="0" y="115" fill="#000000" font-size="5px" font-weight="bold" font-family="'Helvetica Neue', Helvetica, Arial-Unicode, Arial, Sans-serif">Created by Stone</text><text x="0" y="120" fill="#000000" font-size="5px" font-weight="bold" font-family="'Helvetica Neue', Helvetica, Arial-Unicode, Arial, Sans-serif">from the Noun Project</text></svg>